# xmcd
#
# Track frame offsets: 
#        182
#        12765
#        24895
#        39357
#        52102
#        60895
#        81517
#        102637
#        120400
#        134860
#        144262
#        155637
#        164725
#        179992
#        195470
#
# Disc length: 2967 seconds
#
# Revision: 0
# Processed by: cddbd v1.4PL0 Copyright (c) Steve Scherf et al.
# Submitted via: ExactAudioCopy v0.90b4
#
DISCID=d30b950f
DTITLE=Joe Brown - Joe Brown On Stage
DYEAR=1991
DGENRE=Pop
TTITLE0=It'll Be Me
TTITLE1=Shine
TTITLE2=That's What Love Will Do
TTITLE3=All Things Bright and Beautiful
TTITLE4=Get Rhythm
TTITLE5=It's A Blubird Blue
TTITLE6=Sea Of Heartbreak
TTITLE7=Dragonfly
TTITLE8=You Can't Lie To A Liar
TTITLE9=Henry VIII
TTITLE10=Picture Of You
TTITLE11=What A Crazy World
TTITLE12=That'll Be The Day
TTITLE13=Hava Nagila
TTITLE14=The Battle Of New Orleans
EXTD=
EXTT0=
EXTT1=
EXTT2=
EXTT3=
EXTT4=
EXTT5=
EXTT6=
EXTT7=
EXTT8=
EXTT9=
EXTT10=
EXTT11=
EXTT12=
EXTT13=
EXTT14=
PLAYORDER=
